<mxfile host="Electron" agent="Mozilla/5.0 (Macintosh; Intel Mac OS X 10_15_7) AppleWebKit/537.36 (KHTML, like Gecko) draw.io/26.2.2 Chrome/134.0.6998.178 Electron/35.1.2 Safari/537.36" version="26.2.2">
  <diagram name="GrpcDiscountApp-Advanced-Full" id="UJY6X3TkTfJg7xv1jVxn">
    <mxGraphModel dx="2068" dy="1244" grid="1" gridSize="10" guides="1" tooltips="1" connect="1" arrows="1" fold="1" page="1" pageScale="1" pageWidth="827" pageHeight="1169" math="0" shadow="0">
      <root>
        <mxCell id="0" />
        <mxCell id="1" parent="0" />
        <mxCell id="1000" value="External gRPC Client (e.g., Web, Mobile)" style="rounded=1;whiteSpace=wrap;html=1;fillColor=#fa6800;strokeColor=#C73500;fontColor=#000000;" parent="1" vertex="1">
          <mxGeometry x="40" y="40" width="250" height="80" as="geometry" />
        </mxCell>
        <mxCell id="100" value="Docker Network" style="rounded=1;whiteSpace=wrap;html=1;strokeWidth=2;" parent="1" vertex="1">
          <mxGeometry x="20" y="160" width="1100" height="680" as="geometry" />
        </mxCell>
        <mxCell id="3" value="discount-server (gRPC Server)" style="rounded=1;whiteSpace=wrap;html=1;fillColor=#1ba1e2;strokeColor=#006EAF;fontColor=#ffffff;" parent="100" vertex="1">
          <mxGeometry x="400" y="240" width="220" height="80" as="geometry" />
        </mxCell>
        <mxCell id="4" value="redis (Persistent DB)" style="rounded=1;whiteSpace=wrap;html=1;fillColor=#6a00ff;strokeColor=#3700CC;fontColor=#ffffff;" parent="100" vertex="1">
          <mxGeometry x="780" y="240" width="200" height="80" as="geometry" />
        </mxCell>
        <mxCell id="5" value="redis-data (Volume)" style="rounded=1;whiteSpace=wrap;html=1;fillColor=#a20025;strokeColor=#6F0000;dashed=1;fontColor=#ffffff;" parent="100" vertex="1">
          <mxGeometry x="820" y="400" width="120" height="60" as="geometry" />
        </mxCell>
        <mxCell id="8" style="edgeStyle=orthogonalEdgeStyle;rounded=0;html=1;strokeColor=#82B366;endArrow=block;" parent="100" source="3" target="4" edge="1">
          <mxGeometry relative="1" as="geometry" />
        </mxCell>
        <mxCell id="9" style="edgeStyle=orthogonalEdgeStyle;rounded=0;html=1;dashed=1;strokeColor=#D79B00;endArrow=block;" parent="100" source="4" target="5" edge="1">
          <mxGeometry relative="1" as="geometry" />
        </mxCell>
        <mxCell id="6" style="edgeStyle=orthogonalEdgeStyle;rounded=0;html=1;strokeColor=#B85450;endArrow=block;" parent="1" source="1000" target="3" edge="1">
          <mxGeometry relative="1" as="geometry" />
        </mxCell>
      </root>
    </mxGraphModel>
  </diagram>
</mxfile>
